<?xml version="1.0" standalone="no"?>
<!DOCTYPE svg PUBLIC "-//W3C//DTD SVG 20010904//EN"
 "http://www.w3.org/TR/2001/REC-SVG-20010904/DTD/svg10.dtd">
<svg version="1.0" xmlns="http://www.w3.org/2000/svg"
 width="200.000000pt" height="120.000000pt" viewBox="0 0 200.000000 120.000000"
 preserveAspectRatio="xMidYMid meet">
<metadata>
Created by potrace 1.16, written by Peter Selinger 2001-2019
</metadata>
<g transform="translate(0.000000,120.000000) scale(0.100000,-0.100000)"
fill="#000000" stroke="none">
<path d="M205 1186 c-76 -24 -85 -32 -85 -81 0 -52 2 -52 80 -25 31 11 82 19
117 20 54 0 67 -4 93 -27 26 -23 32 -38 37 -86 l6 -58 -39 8 c-21 4 -73 7
-114 7 -81 -1 -135 -21 -177 -66 -69 -74 -53 -226 30 -276 73 -46 189 -37 268
20 22 16 42 28 43 26 1 -2 10 -15 19 -30 22 -35 56 -36 94 -4 l28 24 -18 48
c-13 38 -17 82 -17 194 0 203 -21 263 -104 301 -49 22 -197 25 -261 5z m239
-343 c12 -8 0 -80 -18 -108 -24 -37 -58 -55 -113 -61 -42 -6 -53 -3 -77 18
-53 45 -31 137 37 157 30 10 152 5 171 -6z"/>
<path d="M1585 1181 c-93 -43 -130 -139 -89 -228 24 -50 67 -77 177 -113 70
-23 102 -38 113 -55 53 -81 -70 -140 -206 -100 -89 27 -104 25 -108 -11 -4
-46 23 -71 98 -90 83 -21 190 -15 245 13 73 38 105 89 105 165 0 91 -45 133
-196 182 -89 29 -124 55 -124 90 0 56 80 83 180 60 104 -24 105 -24 108 14 2
21 -3 41 -13 52 -38 42 -217 55 -290 21z"/>
<path d="M624 1176 c-6 -15 153 -552 169 -573 6 -8 33 -13 68 -13 l58 0 11 38
c6 20 30 118 53 217 l43 180 48 -195 c63 -261 53 -242 128 -238 l62 3 88 284
c49 156 87 290 84 297 -7 18 -100 19 -114 2 -5 -7 -34 -106 -63 -220 -29 -115
-55 -208 -58 -208 -3 0 -28 93 -54 207 -27 114 -53 213 -59 220 -14 17 -102
17 -117 -1 -6 -7 -31 -100 -56 -207 -25 -107 -49 -201 -52 -209 -3 -8 -29 79
-59 193 -29 115 -58 215 -65 223 -16 19 -108 19 -115 0z"/>
</g>
</svg>
